# xmcd
#
# Track frame offsets:
#	182
#	27305
#	45540
#	65477
#	82142
#	95725
#	109492
#	124105
#	139562
#	157690
#	173495
#	190115
#	205655
#	214667
#
# Disc length: 3123 seconds
#
# Revision: 1
# Processed by: cddbd v1.5.1PL0 Copyright (c) Steve Scherf et al.
# Submitted via: audiograbber 1.83.01
#
DISCID=bc0c310e
DTITLE=George and Gwen Mc Crae - Together Again
DYEAR=1975
DGENRE=Soul
TTITLE0=Love on the run
TTITLE1=Kiss me the way i like it
TTITLE2=Nothing but love (Can stop me from dancing)
TTITLE3=I`ll do the rocking
TTITLE4=You and i were made for each other
TTITLE5=Mechanical body
TTITLE6=I`m coming at you
TTITLE7=Lat`s dance, dance, dance,
TTITLE8=winners together or loser apart
TTITLE9=Home sick, love sick
TTITLE10=The rub
TTITLE11=Let your love do the talkin`
TTITLE12=Sing happy song
TTITLE13=Tonight`s the night
EXTD=Georg and Gwen
EXTT0=
EXTT1=
EXTT2=
EXTT3=
EXTT4=
EXTT5=
EXTT6=
EXTT7=
EXTT8=
EXTT9=
EXTT10=
EXTT11=
EXTT12=
EXTT13=
PLAYORDER=
